<svg xmlns="http://www.w3.org/2000/svg" xmlns:xlink="http://www.w3.org/1999/xlink" viewBox="0 0 661.67 529.24"><defs><style>.cls-1{fill:none;}.cls-2{clip-path:url(#clip-path);}.cls-3{fill:url(#linear-gradient);}</style><clipPath id="clip-path" transform="translate(-1224.38 -542.18)"><path class="cls-1" d="M1872,844.42l-115.3,115.3a43.12,43.12,0,0,1-61,0l-115.3-115.3a43.11,43.11,0,0,1,0-61l115.3-115.31a43.14,43.14,0,0,1,61,0L1872,783.45A43.12,43.12,0,0,1,1872,844.42Zm-329.51,11.84L1427.16,741a43.11,43.11,0,0,0-61,0l-115.3,115.3a43.11,43.11,0,0,0,0,61l115.3,115.3a43.11,43.11,0,0,0,61,0l115.3-115.3A43.11,43.11,0,0,0,1542.46,856.26ZM1592,655.1l-39.51-39.51a43.12,43.12,0,0,0-61,0L1452,655.1a43.12,43.12,0,0,0,0,61l39.51,39.51a43.11,43.11,0,0,0,61,0L1592,716.07A43.11,43.11,0,0,0,1592,655.1Z"/></clipPath><linearGradient id="linear-gradient" x1="53" y1="261.46" x2="647.41" y2="268.22" gradientUnits="userSpaceOnUse"><stop offset="0.12" stop-color="#fbb03b"/><stop offset="0.97" stop-color="#f0f"/></linearGradient></defs><title>bg_trust</title><g id="Layer_2" data-name="Layer 2"><g class="cls-2"><rect class="cls-3" width="661.67" height="529.24"/></g></g></svg>